<svg width="18" height="18" viewBox="0 0 18 18" fill="none" xmlns="http://www.w3.org/2000/svg">
<path fill-rule="evenodd" clip-rule="evenodd" d="M8.55 0H9.45V0.923077H8.55V0ZM7.2 0.461538H4.5V3.23077H7.2V0.461538ZM4.50002 4.15385H0.900024V7.84615H4.50002V4.15385ZM1.98435 2.30769H1.08435V3.23077H1.98435V2.30769ZM5.40002 4.4973H6.30002V5.42037H5.40002V4.4973ZM6.30002 6.68149H5.40002V7.60457H6.30002V6.68149ZM4.05 8.76923H0V15.5374H1.82743L6.79493 18H15.8203C16.1068 17.7386 16.508 17.0465 15.8203 16.3697H8.08427L4.21625 12.057L4.64603 11.5618L8.08427 15.1536C8.37079 15.1978 8.94383 15.0623 8.94383 14.1668L4.64603 8.86614C4.53485 8.82162 4.31258 8.76626 4.04999 8.76935L4.05 8.76923ZM15.9313 3.94844C15.4379 3.55132 14.8755 3.24038 14.2656 3.03773C13.9964 3.69269 13.3521 4.15386 12.6 4.15386C11.848 4.15386 11.2037 3.69266 10.9345 3.03767C10.2106 3.27815 9.55365 3.67116 8.99968 4.17976C9.60666 4.78549 9.7374 5.75916 9.2648 6.50944C8.83289 7.19511 8.02802 7.48632 7.29123 7.28827C7.23129 7.6187 7.19995 7.95945 7.19995 8.30771C7.19995 8.6551 7.23114 8.99503 7.29079 9.3247C7.99078 9.14381 8.75562 9.40264 9.19794 10.0369C9.71919 10.7843 9.61468 11.798 8.99214 12.4287C9.51812 12.9134 10.1374 13.2937 10.819 13.5379C10.9459 12.668 11.695 12 12.6 12C13.5051 12 14.2541 12.668 14.3811 13.5378C15.1473 13.2633 15.8348 12.8167 16.3995 12.2432C16.0719 11.7698 15.9646 11.1524 16.1639 10.5706C16.4263 9.80398 17.1417 9.33042 17.9056 9.34403C17.9675 9.00832 18 8.6619 18 8.30771C18 7.80467 17.9346 7.31731 17.812 6.85405C17.1014 7.04302 16.323 6.77736 15.8811 6.1287C15.422 5.45486 15.4661 4.57345 15.9313 3.94844ZM12.738 9.5934C13.4047 9.5934 13.988 9.03194 13.988 8.28571C13.988 7.53947 13.4047 6.97801 12.738 6.97801C12.0714 6.97801 11.488 7.53947 11.488 8.28571C11.488 9.03194 12.0714 9.5934 12.738 9.5934ZM12.738 10.5934C13.9807 10.5934 14.988 9.56021 14.988 8.28571C14.988 7.0112 13.9807 5.97801 12.738 5.97801C11.4954 5.97801 10.488 7.0112 10.488 8.28571C10.488 9.56021 11.4954 10.5934 12.738 10.5934Z" fill="#DB3839"/>
</svg>
