<svg width="18" height="18" viewBox="0 0 18 18" fill="none" xmlns="http://www.w3.org/2000/svg">
<path fill-rule="evenodd" clip-rule="evenodd" d="M5.86225 1.78669C5.86225 0.573377 6.98676 0 7.62192 0C7.4102 0.198521 6.98676 0.833788 6.98676 1.78669C6.98676 2.46637 7.19357 2.75821 7.4392 3.10483C7.62403 3.36565 7.83084 3.65749 7.98805 4.16894C8.28096 5.12184 7.01913 6.15415 6.3516 6.55119C6.56332 6.35267 6.98676 5.7174 6.98676 4.7645C6.98676 4.17169 6.70822 3.73189 6.4284 3.29006C6.14598 2.84413 5.86225 2.39614 5.86225 1.78669ZM1.27032 10.1246V7.74231H15.2438C15.879 7.74231 17.2763 7.98053 17.7845 8.93344C18.4196 10.1246 17.5279 11.9112 16.7034 12.5068C16.0439 12.9833 15.0321 13.1024 14.6087 13.1024C14.1005 14.0553 12.7032 15.0876 12.068 15.4846H4.44612C3.42986 15.0082 2.61375 14.095 2.33272 13.6979C1.65826 12.745 1.34343 10.9186 1.27032 10.1246ZM15.0096 11.9356C15.4864 11.9174 16.132 11.7397 16.5142 11.133C16.7246 10.7989 16.797 10.4325 16.7947 10.0895C16.7898 9.38656 16.1154 8.97451 15.4136 8.93635C15.4536 9.98775 15.2501 11.0789 15.0096 11.9356ZM0 17.5V16.6758H17.1493V17.5C17.1493 17.7761 16.9255 18 16.6493 18H0.5C0.223858 18 0 17.7761 0 17.5ZM10.6113 1.78668C10.2744 1.78668 9.24629 2.03261 9.2464 2.97781C9.24644 3.30347 9.39771 3.5425 9.57931 3.82946C9.80305 4.18302 10.0728 4.60932 10.1625 5.36006C10.2756 6.30623 9.7391 6.55118 9.52737 6.55118C9.73909 6.55118 10.2896 6.43207 10.7977 5.95562C11.1863 5.59125 11.0317 4.85188 10.815 4.29721C10.7421 4.11059 10.6378 3.93942 10.5334 3.76802C10.4686 3.66168 10.4038 3.55525 10.3464 3.44499C10.2458 3.25177 10.1625 3.03007 10.1625 2.83782C10.1625 2.47336 10.4617 1.9852 10.6113 1.78668Z" fill="#DB3839"/>
</svg>
