<svg width="18" height="18" viewBox="0 0 18 18" fill="none" xmlns="http://www.w3.org/2000/svg">
<path fill-rule="evenodd" clip-rule="evenodd" d="M4.77843 8.96095C6.62885 8.66959 8.05685 6.78341 8.05685 4.5C8.05685 2.01472 6.36519 0 4.27843 0C2.19166 0 0.5 2.01472 0.5 4.5C0.5 6.78341 1.928 8.66959 3.77843 8.96095V17H0.5C0.223858 17 0 17.2239 0 17.5C0 17.7761 0.223858 18 0.5 18H17.5029C17.7791 18 18.0029 17.7761 18.0029 17.5C18.0029 17.2239 17.7791 17 17.5029 17H16.4246C16.5096 16.8529 16.5583 16.6821 16.5583 16.5L16.5583 15.4985C17.0848 15.4697 17.5029 15.0337 17.5029 14.5V12C17.5029 11.4477 17.0552 11 16.5029 11H16.2496L15.2523 7.85018C15.1863 7.64182 14.9926 7.50045 14.7741 7.50111L8.88442 7.51895C8.67169 7.5196 8.48266 7.65477 8.41328 7.85586L7.32841 11H7.16764C6.61536 11 6.16764 11.4477 6.16764 12V14.5C6.16764 15.0337 6.58573 15.4697 7.11226 15.4985V16.5C7.11226 16.6821 7.16096 16.8529 7.24604 17H4.77843V8.96095ZM2.76852 7V2.63636H4.49011C4.82108 2.63636 5.10304 2.69957 5.33599 2.82599C5.56895 2.95099 5.7465 3.125 5.86866 3.34801C5.99224 3.5696 6.05403 3.82528 6.05403 4.11506C6.05403 4.40483 5.99153 4.66051 5.86653 4.8821C5.74153 5.10369 5.56042 5.27628 5.32321 5.39986C5.08741 5.52344 4.8019 5.58523 4.46667 5.58523H3.6911V7H2.76852ZM4.31753 4.84588H3.6911V3.39062H4.31326C4.49224 3.39062 4.63997 3.42116 4.75645 3.48224C4.87292 3.5419 4.95957 3.62642 5.01639 3.7358C5.07463 3.84375 5.10375 3.97017 5.10375 4.11506C5.10375 4.25852 5.07463 4.38565 5.01639 4.49645C4.95957 4.60582 4.87292 4.69176 4.75645 4.75426C4.64139 4.81534 4.49508 4.84588 4.31753 4.84588ZM10.489 15.5H13.0412V16.5C13.0412 16.6821 13.0899 16.8529 13.175 17H10.3552C10.4403 16.8529 10.489 16.6821 10.489 16.5V15.5ZM7.61227 12H8.52917L9.47378 14.5H7.61227C7.33612 14.5 7.11227 14.2761 7.11227 14V12.5C7.11227 12.2239 7.33612 12 7.61227 12ZM15.1414 12H16.0115C16.2831 12 16.505 12.2168 16.5113 12.4883L16.5463 13.9883C16.5529 14.269 16.3272 14.5 16.0465 14.5H14.1968L15.1414 12Z" fill="#DB3839"/>
</svg>
