<svg width="18" height="18" viewBox="0 0 18 18" fill="none" xmlns="http://www.w3.org/2000/svg">
<path fill-rule="evenodd" clip-rule="evenodd" d="M2.75 1.5C2.05964 1.5 1.5 2.05964 1.5 2.75V3.87182C1.5 4.28603 1.16421 4.62182 0.75 4.62182C0.335786 4.62182 0 4.28603 0 3.87182V2.75C0 1.23122 1.23122 0 2.75 0H3.87181C4.28603 0 4.62181 0.335786 4.62181 0.75C4.62181 1.16421 4.28603 1.5 3.87181 1.5H2.75ZM8.77745 7.43962C10.5016 7.43962 11.8993 6.04193 11.8993 4.3178C11.8993 2.59367 10.5016 1.19598 8.77745 1.19598C7.05332 1.19598 5.65564 2.59367 5.65564 4.3178C5.65564 6.04193 7.05332 7.43962 8.77745 7.43962ZM5.97986 8.77756C4.323 8.77756 2.97986 10.1207 2.97986 11.7776V14.0212C2.97986 14.5735 3.42757 15.0212 3.97986 15.0212H13.5752C14.1274 15.0212 14.5752 14.5735 14.5752 14.0212V11.7776C14.5752 10.1207 13.232 8.77756 11.5752 8.77756H5.97986ZM16.5011 2.75C16.5011 2.05964 15.9415 1.5 15.2511 1.5H14.1293C13.7151 1.5 13.3793 1.16421 13.3793 0.75C13.3793 0.335786 13.7151 0 14.1293 0H15.2511C16.7699 0 18.0011 1.23122 18.0011 2.75V3.87182C18.0011 4.28603 17.6653 4.62182 17.2511 4.62182C16.8369 4.62182 16.5011 4.28603 16.5011 3.87182V2.75ZM15.2511 16.501C15.9415 16.501 16.5011 15.9414 16.5011 15.251V14.1292C16.5011 13.715 16.8369 13.3792 17.2511 13.3792C17.6653 13.3792 18.0011 13.715 18.0011 14.1292V15.251C18.0011 16.7698 16.7699 18.001 15.2511 18.001H14.1293C13.7151 18.001 13.3793 17.6652 13.3793 17.251C13.3793 16.8368 13.7151 16.501 14.1293 16.501H15.2511ZM1.5 15.251C1.5 15.9414 2.05964 16.501 2.75 16.501H3.87181C4.28603 16.501 4.62181 16.8368 4.62181 17.251C4.62181 17.6652 4.28603 18.001 3.87181 18.001H2.75C1.23122 18.001 0 16.7698 0 15.251V14.1292C0 13.715 0.335786 13.3792 0.75 13.3792C1.16421 13.3792 1.5 13.715 1.5 14.1292V15.251Z" fill="#DB3839"/>
</svg>
