<svg width="18" height="18" viewBox="0 0 18 18" fill="none" xmlns="http://www.w3.org/2000/svg">
<path fill-rule="evenodd" clip-rule="evenodd" d="M12.6833 4.70196C14.0641 4.70196 15.1833 3.64939 15.1833 2.35098C15.1833 1.05257 14.0641 0 12.6833 0C11.3026 0 10.1833 1.05257 10.1833 2.35098C10.1833 3.64939 11.3026 4.70196 12.6833 4.70196ZM2.91674 11.4564C3.2781 11.1536 3.72543 10.63 4 9.85543V8.64785C4 8.31257 4.32352 8.08111 4.61022 8.25496C5.1098 8.55789 5.65748 9.08126 5.77885 9.85543V10.7958C5.7963 10.9726 5.77998 11.2489 5.66409 11.4564H8C8.41421 11.4564 8.75 11.7922 8.75 12.2064C8.75 12.492 8.59036 12.7403 8.35545 12.867H8.49996C8.91417 12.867 9.24996 13.2028 9.24996 13.617C9.24996 14.0312 8.91417 14.367 8.49996 14.367H8.35545C8.59036 14.4937 8.75 14.742 8.75 15.0276C8.75 15.3665 8.52519 15.6529 8.21656 15.7458C8.23829 15.816 8.25 15.8906 8.25 15.968C8.25 16.3822 7.91421 16.718 7.5 16.718H2.5H1.75V15.7776V15.218V14.367V14.2776V12.9564V12.867V11.4564H2.5H2.91674ZM0 11.7362H1.3325V16.4382H0V11.7362ZM7.5 9.85543C7.5 7.25861 9.60514 5.15347 12.202 5.15347H13.298C15.8949 5.15347 18 7.25861 18 9.85543H7.5ZM13.5 11.266H14.5L14.8046 11.8388C15.0681 11.9076 15.317 12.0094 15.5461 12.1392L16.1619 11.9518L16.8628 12.6225L16.6438 13.2228C16.7586 13.4235 16.8483 13.6388 16.909 13.8649L17.6909 14.2325V15.1729L16.7899 15.5966C16.7304 15.7379 16.659 15.8736 16.577 16.0026L16.8321 16.8134L16.1013 17.4553L15.2046 17.1419C15.1112 17.1805 15.0154 17.2146 14.9173 17.2442L14.5155 18H13.5155L13.1194 17.2551C12.9311 17.2008 12.7507 17.1295 12.5802 17.0432L11.8821 17.2674L11.1698 16.6074L11.3947 15.9571C11.291 15.7868 11.2056 15.6053 11.1412 15.4151L10.433 15.0821V14.1417L11.1014 13.8275C11.1558 13.6358 11.2312 13.4521 11.3251 13.2788L11 12.6766L11.5951 11.9208L12.5626 12.0805C12.761 11.9785 12.973 11.8969 13.1954 11.8388L13.5 11.266ZM15.5 14.5574C15.5 15.3364 14.8284 15.968 14 15.968C13.1716 15.968 12.5 15.3364 12.5 14.5574C12.5 13.7783 13.1716 13.1468 14 13.1468C14.8284 13.1468 15.5 13.7783 15.5 14.5574Z" fill="#DB3839"/>
</svg>
