<svg width="20" height="19" viewBox="0 0 20 19" fill="none" xmlns="http://www.w3.org/2000/svg">
<path d="M1 5.08148H10.3313C11.014 5.08148 12.3404 3.21265 11.8469 1.60953C11.406 0.17742 9.37921 0.142436 8.78501 1.51803C8.66068 1.80585 8.54417 2.14421 8.44116 2.54074M1 8.89259H15.3797C16.9603 8.89259 18.661 8.18965 18.9441 6.63457C18.9913 6.37493 19.0113 6.10876 18.9936 5.84138C18.8942 4.33998 16.7505 3.62112 15.8949 4.85886C15.6521 5.21002 15.3783 5.69092 15.0566 6.35185M1 12.7037H8.98036C10.4379 12.7037 11.9808 13.3098 12.3183 14.7277C12.4834 15.4218 12.467 16.1927 12.0392 16.9164C11.6464 17.5808 10.9157 18.0625 10.1472 17.9905C9.32095 17.9131 8.40051 17.3133 7.97492 15.5" stroke="#DB3839" stroke-linecap="round"/>
</svg>
