<svg width="18" height="18" viewBox="0 0 18 18" fill="none" xmlns="http://www.w3.org/2000/svg">
<path fill-rule="evenodd" clip-rule="evenodd" d="M9.57118 2.57979C9.99653 2.35056 10.2865 1.89413 10.2865 1.36848C10.2865 0.61269 9.68705 0 8.9476 0C8.20815 0 7.60872 0.61269 7.60872 1.36848C7.60872 1.89019 7.89434 2.34371 8.31448 2.5746C7.34184 2.84511 6.62807 3.73724 6.62807 4.79608V5.18362H11.2392V4.79608C11.2392 3.74392 10.5344 2.85637 9.57118 2.57979ZM4.31156 5.54109C4.4984 5.65138 4.66814 5.78774 4.8157 5.94526L4.29698 9.7891H0.89259V7.49518C0.89259 6.56265 1.45547 5.76158 2.26001 5.41321C2.09609 5.18612 1.9992 4.9054 1.9992 4.60155C1.9992 3.84575 2.59864 3.23306 3.33809 3.23306C4.07753 3.23306 4.67697 3.84575 4.67697 4.60155C4.67697 4.96534 4.53809 5.29598 4.31156 5.54109ZM3.19552 13.6363C3.39049 13.7238 3.57095 13.8381 3.73216 13.9746L3.18894 18H0V15.7061C0 14.7816 0.553142 13.9864 1.3465 13.6333C1.0921 13.3842 0.933683 13.0335 0.933683 12.6449C0.933683 11.8891 1.53312 11.2764 2.27257 11.2764C3.01201 11.2764 3.61145 11.8891 3.61145 12.6449C3.61145 13.035 3.45175 13.387 3.19552 13.6363ZM4.19801 18L4.19801 18H4.61115L13.3889 18L11.6036 6.1398H6.24809L4.46295 18H4.19801ZM18 18H14.7814V18V17.9639L14.7763 17.9282L14.202 13.9662C14.3797 13.8175 14.5806 13.6955 14.7984 13.6064C14.4838 13.3559 14.2815 12.9651 14.2815 12.526C14.2815 11.7703 14.881 11.1576 15.6204 11.1576C16.3598 11.1576 16.9593 11.7703 16.9593 12.526C16.9593 12.9541 16.767 13.3362 16.466 13.5871C17.2951 13.9041 17.8926 14.6941 17.9231 15.6324L18 18ZM16.9592 10.0647H13.6365L13.0643 6.11691C13.2413 5.95078 13.445 5.81274 13.6683 5.70993C13.3558 5.45941 13.155 5.06992 13.155 4.63249C13.155 3.8767 13.7544 3.26401 14.4939 3.26401C15.2333 3.26401 15.8328 3.8767 15.8328 4.63249C15.8328 5.03202 15.6652 5.39155 15.3981 5.64174C16.2413 5.9517 16.8515 6.74861 16.8823 7.69718L16.9592 10.0647ZM5.50374 9.7891L5.50374 9.78909H5.30605L5.30605 9.7891H5.50374Z" fill="#DB3839"/>
</svg>
