<svg width="18" height="18" viewBox="0 0 18 18" fill="none" xmlns="http://www.w3.org/2000/svg">
<path fill-rule="evenodd" clip-rule="evenodd" d="M0.8 0.800001L7.3 0.8V5.67796H0.8V0.800001ZM0 0H0.8H7.3H8.1V0.8V5.67796V6.47796H7.3H0.8H0V5.67796V0.800001V0ZM1.35 1.24979H3.49688V5.36769H1.35V1.24979ZM2.70002 2.64176C2.8381 2.64176 2.95002 2.75369 2.95002 2.89176V3.58303C2.95002 3.7211 2.8381 3.83303 2.70002 3.83303C2.56195 3.83303 2.45002 3.7211 2.45002 3.58303V2.89176C2.45002 2.75369 2.56195 2.64176 2.70002 2.64176ZM3.83555 1.24979L4.39453 1.24979V5.36769H3.83555V1.24979ZM4.77268 1.24979H6.95302V5.36769L4.77268 5.36769V1.24979ZM5.39998 2.66885C5.53805 2.66885 5.64998 2.78078 5.64998 2.91885V3.61133C5.64998 3.7494 5.53805 3.86133 5.39998 3.86133C5.2619 3.86133 5.14998 3.7494 5.14998 3.61133V2.91885C5.14998 2.78078 5.2619 2.66885 5.39998 2.66885ZM0.45 7.92731H4.95V10.1362H0.45V7.92731ZM1.35005 8.68178H2.70007V9.76857H1.35007L1.35005 8.68178ZM3.97974 8.71348H3.07974V9.77155H3.97974V8.71348ZM9.55547 10.5687H0.189844V11.5476H9.55547V10.5687ZM0.196859 11.7733H9.56881V16.8063H0.196875L0.196859 11.7733ZM9.56602 17.2846H0.9V17.9684H9.56602V17.2846ZM9.9 16.8921H11.25V18H9.9V16.8921ZM16.0734 16.935H11.7V17.9931H16.0734V16.935ZM16.4366 16.9698H17.8177L17.8177 17.8849H16.4366L16.4366 16.9698ZM9.9 2.70733C9.9 2.15504 10.3477 1.70733 10.9 1.70733H16.8141C17.3664 1.70733 17.8141 2.15504 17.8141 2.70733V5.74032C17.8141 6.2926 17.3664 6.74032 16.8141 6.74032H10.9C10.3477 6.74032 9.9 6.2926 9.9 5.74032V2.70733ZM10.55 2.67171C10.55 2.53364 10.6619 2.42171 10.8 2.42171H11.7674C11.9055 2.42171 12.0174 2.53364 12.0174 2.67171C12.0174 2.80978 11.9055 2.92171 11.7674 2.92171H10.8C10.6619 2.92171 10.55 2.80978 10.55 2.67171ZM18 7.19786H9.9V16.5275H18V7.19786ZM10.8 7.86295C10.6619 7.86295 10.55 7.97488 10.55 8.11295C10.55 8.25102 10.6619 8.36295 10.8 8.36295H11.8901C12.0282 8.36295 12.1401 8.25102 12.1401 8.11295C12.1401 7.97488 12.0282 7.86295 11.8901 7.86295H10.8ZM15.3 1.24979H17.1V1.19224C17.1 0.97133 16.9209 0.792244 16.7 0.792244H15.75L15.3 1.24979Z" fill="#DB3839"/>
</svg>
