<svg width="24" height="24" viewBox="0 0 24 24" fill="none" xmlns="http://www.w3.org/2000/svg">
<path fill-rule="evenodd" clip-rule="evenodd" d="M12.2927 2.19517C12.9412 2.19517 13.467 1.70376 13.467 1.09758C13.467 0.491405 12.9412 0 12.2927 0C11.6442 0 11.1184 0.491405 11.1184 1.09758C11.1184 1.70376 11.6442 2.19517 12.2927 2.19517ZM16.4028 5.34108C17.3756 5.34108 18.1642 4.60398 18.1642 3.69471C18.1642 2.78544 17.3756 2.04833 16.4028 2.04833C15.43 2.04833 14.6414 2.78544 14.6414 3.69471C14.6414 4.60398 15.43 5.34108 16.4028 5.34108ZM9.9443 3.60104C9.9443 4.51031 9.15569 5.24742 8.18289 5.24742C7.21009 5.24742 6.42147 4.51031 6.42147 3.60104C6.42147 2.69177 7.21009 1.95466 8.18289 1.95466C9.15569 1.95466 9.9443 2.69177 9.9443 3.60104ZM12.5897 8.65045C13.8867 8.65045 14.9382 7.66764 14.9382 6.45528C14.9382 5.24293 13.8867 4.26012 12.5897 4.26012C11.2926 4.26012 10.2411 5.24293 10.2411 6.45528C10.2411 7.66764 11.2926 8.65045 12.5897 8.65045ZM8.18284 8.63383C8.18284 9.84619 7.13136 10.829 5.83429 10.829C4.53722 10.829 3.48574 9.84619 3.48574 8.63383C3.48574 7.42147 4.53722 6.43866 5.83429 6.43866C7.13136 6.43866 8.18284 7.42147 8.18284 8.63383ZM18.1642 12.4754C19.4613 12.4754 20.5128 11.4926 20.5128 10.2802C20.5128 9.06785 19.4613 8.08504 18.1642 8.08504C16.8672 8.08504 15.8157 9.06785 15.8157 10.2802C15.8157 11.4926 16.8672 12.4754 18.1642 12.4754ZM12.0222 13.5614C12.0222 14.7738 10.9707 15.7566 9.67367 15.7566C8.3766 15.7566 7.32512 14.7738 7.32512 13.5614C7.32512 12.3491 8.3766 11.3662 9.67367 11.3662C10.9707 11.3662 12.0222 12.3491 12.0222 13.5614ZM17.5771 13.573C13.9938 13.1543 12.6173 15.3639 12.3276 16.6803C12.3103 16.7588 12.2131 16.7912 12.1544 16.7363L11.7697 16.3767C11.7331 16.3425 11.7289 16.2846 11.7576 16.2435C14.0367 12.9899 12.4686 11.2672 10.8698 10.5747C10.7594 10.5269 10.7971 10.2802 10.9175 10.2802H14.5414C14.5966 10.2802 14.6413 10.3259 14.6428 10.3811C14.7017 12.5035 16.6137 13.3929 17.5771 13.573ZM0.00485677 18.3815L1.70208 13.0936C1.71536 13.0522 1.75384 13.0242 1.7973 13.0242H5.71067C5.77433 13.0242 5.82188 13.0823 5.8119 13.1451C5.67914 13.9809 5.8677 15.533 7.3882 16.479C7.48934 16.5419 7.42 16.802 7.30091 16.7994C5.92085 16.7692 4.15981 17.0683 4.07603 18.4111C4.07259 18.4662 4.02815 18.5121 3.97292 18.5121H2.46307C2.3913 18.5121 2.3429 18.4387 2.37114 18.3728L3.42615 15.9075C3.45439 15.8415 3.40598 15.7681 3.33422 15.7681H2.37748C2.33746 15.7681 2.30129 15.792 2.28555 15.8288L1.16319 18.4514C1.14744 18.4882 1.11127 18.5121 1.07125 18.5121H0.100072C0.0322861 18.5121 -0.0158592 18.4461 0.00485677 18.3815ZM3.53879 23.8638L5.80954 18.027C5.82449 17.9886 5.8615 17.9633 5.90273 17.9633H13.4046C13.4428 17.9633 13.4778 17.9852 13.4945 18.0196L16.3329 23.8563C16.3652 23.9227 16.3169 24 16.243 24H14.7119C14.6696 24 14.6319 23.9734 14.6177 23.9336L13.4908 20.7737C13.4766 20.7339 13.4389 20.7073 13.3966 20.7073H12.4165C12.3529 20.7073 12.3054 20.7659 12.3187 20.8282L12.8541 23.3303C12.8674 23.3925 12.82 23.4512 12.7563 23.4512H6.54513C6.48148 23.4512 6.43403 23.3925 6.44735 23.3303L6.98274 20.8282C6.99606 20.7659 6.9486 20.7073 6.88495 20.7073H5.90484C5.86256 20.7073 5.82485 20.7339 5.81065 20.7737L4.68374 23.9336C4.66954 23.9734 4.63183 24 4.58955 24H3.63199C3.56165 24 3.51329 23.9293 3.53879 23.8638ZM13.5233 16.9182L14.5731 17.8995C14.6116 17.9354 14.6713 17.9354 14.7097 17.8995L15.0995 17.5352C15.1563 17.4821 15.2493 17.5113 15.2655 17.5873L15.7988 20.0794C15.8086 20.1255 15.8494 20.1585 15.8966 20.1585H21.5355C21.6073 20.1585 21.6557 20.0851 21.6274 20.0191L20.5509 17.5035C20.5296 17.4539 20.5516 17.3964 20.6005 17.3735L21.5875 16.9123C21.6409 16.8873 21.7042 16.9137 21.724 16.9693L22.8377 20.0921C22.8519 20.1319 22.8896 20.1585 22.9319 20.1585H23.8985C23.9663 20.1585 24.0144 20.0925 23.9937 20.0279L22.2965 14.74C22.2832 14.6986 22.2447 14.6706 22.2013 14.6706H14.7013C14.6644 14.6706 14.6305 14.6909 14.6132 14.7234L13.5034 16.798C13.482 16.8379 13.4902 16.8873 13.5233 16.9182Z" fill="#DB3839"/>
</svg>
