<svg width="18" height="14" viewBox="0 0 18 14" fill="none" xmlns="http://www.w3.org/2000/svg">
<path fill-rule="evenodd" clip-rule="evenodd" d="M3.17027 1.36808C3.17027 2.12365 2.61698 2.73617 1.93446 2.73617C1.25194 2.73617 0.698644 2.12365 0.698644 1.36808C0.698644 0.612511 1.25194 0 1.93446 0C2.61698 0 3.17027 0.612511 3.17027 1.36808ZM6.63623 2.65465C6.36009 2.65465 6.13623 2.87851 6.13623 3.15465V5.51848C6.13623 5.79462 6.36009 6.01848 6.63623 6.01848H14.0454V2.65465H6.63623ZM6.63623 10.671C6.36009 10.671 6.13623 10.8949 6.13623 11.171V13.4544C6.13623 13.7306 6.36009 13.9544 6.63623 13.9544H12.2844V10.671H6.63623ZM14.8077 2.68625H17.5C17.7761 2.68625 18 2.91011 18 3.18625V5.50905C18 5.7852 17.7761 6.00905 17.5 6.00905H14.8077V2.68625ZM17.5 10.671H13.0568V13.9544L17.5 13.9544C17.7762 13.9544 18 13.7306 18 13.4544V11.171C18 10.8949 17.7762 10.671 17.5 10.671ZM2.00827 10.6844C2.69079 10.6844 3.24409 10.0719 3.24409 9.31629C3.24409 8.56072 2.69079 7.9482 2.00827 7.9482C1.32575 7.9482 0.772461 8.56072 0.772461 9.31629C0.772461 10.0719 1.32575 10.6844 2.00827 10.6844ZM1.68729 2.85298C0.760938 3.00335 0.0537109 3.807 0.0537109 4.77583V6.11209H3.94994V4.77583C3.94994 3.80311 3.23703 2.9969 2.3052 2.8512V4.48458H1.68729V2.85298ZM2.0971 2.83C2.06553 2.82848 2.03377 2.82772 2.00183 2.82772C1.96989 2.82772 1.93812 2.82848 1.90656 2.83H2.0971ZM0 12.6637C0 11.6757 0.7355 10.8595 1.68884 10.7327V12.3281H2.30675V10.7486C3.21136 10.9169 3.89623 11.7103 3.89623 12.6637V14H0V12.6637Z" fill="#DB3839"/>
</svg>
