<svg width="10" height="8" viewBox="0 0 20 18" fill="none" xmlns="http://www.w3.org/2000/svg">
<path fill-rule="evenodd" clip-rule="evenodd" d="M4.90909 0H1C0.447715 0 0 0.447716 0 1V1.8V17C0 17.5523 0.447716 18 1 18H19C19.5523 18 20 17.5523 20 17V2.8C20 2.24772 19.5523 1.8 19 1.8H5.90909V1C5.90909 0.447715 5.46138 0 4.90909 0ZM7.81818 0C7.2659 0 6.81818 0.447716 6.81818 1V1.35H12.2727V1C12.2727 0.447715 11.825 0 11.2727 0H7.81818ZM13.7273 0C13.175 0 12.7273 0.447716 12.7273 1V1.35H18.1818V1C18.1818 0.447715 17.7341 0 17.1818 0H13.7273ZM0.909058 4.15C0.909058 3.59772 1.35677 3.15 1.90906 3.15H18.0909C18.6432 3.15 19.0909 3.59772 19.0909 4.15V15.65C19.0909 16.2023 18.6432 16.65 18.0909 16.65H1.90906C1.35677 16.65 0.909058 16.2023 0.909058 15.65V4.15ZM5.45463 10.8L6.81826 11.7L8.1819 10.8V9.90002C8.90671 8.75192 9.65926 6.34062 7.1753 5.50362C6.94358 5.42555 6.69196 5.40821 6.45538 5.46998C5.26542 5.78069 3.80955 6.96849 5.45463 9.90002V10.8ZM5.00006 11.25L2.27278 12.15L1.81824 16.2H5.90915L5.00006 11.25ZM11.3637 12.15L8.63642 11.25L7.72733 16.2H11.8182L11.3637 12.15ZM6.81826 12.15L6.36369 12.6V13.05V15.75H7.27278V12.6L6.81826 12.15ZM13.1818 6.24999C12.9056 6.24999 12.6818 6.47385 12.6818 6.74999C12.6818 7.02614 12.9056 7.24999 13.1818 7.24999H17.7272C18.0034 7.24999 18.2272 7.02614 18.2272 6.74999C18.2272 6.47385 18.0034 6.24999 17.7272 6.24999H13.1818ZM12.6818 8.55002C12.6818 8.27388 12.9056 8.05002 13.1818 8.05002H17.2727C17.5488 8.05002 17.7727 8.27388 17.7727 8.55002C17.7727 8.82616 17.5488 9.05002 17.2727 9.05002H13.1818C12.9056 9.05002 12.6818 8.82616 12.6818 8.55002ZM13.1818 9.85002C12.9056 9.85002 12.6818 10.0739 12.6818 10.35C12.6818 10.6262 12.9056 10.85 13.1818 10.85H17.2727C17.5488 10.85 17.7727 10.6262 17.7727 10.35C17.7727 10.0739 17.5488 9.85002 17.2727 9.85002H13.1818ZM12.6818 12.15C12.6818 11.8739 12.9056 11.65 13.1818 11.65H15.909C16.1852 11.65 16.409 11.8739 16.409 12.15C16.409 12.4261 16.1852 12.65 15.909 12.65H13.1818C12.9056 12.65 12.6818 12.4261 12.6818 12.15Z" fill="#DB3839"/>
</svg>
