<svg width="24" height="22" viewBox="0 0 24 22" fill="none" xmlns="http://www.w3.org/2000/svg">
<path fill-rule="evenodd" clip-rule="evenodd" d="M6.09091 0H1C0.447715 0 0 0.447715 0 1V2.2V21C0 21.5523 0.447716 22 1 22H23C23.5523 22 24 21.5523 24 21V3.2C24 2.64772 23.5523 2.2 23 2.2H7.09091V1C7.09091 0.447715 6.64319 0 6.09091 0ZM9.18182 0C8.62953 0 8.18182 0.447715 8.18182 0.999999V1.65H14.7273V1C14.7273 0.447715 14.2796 0 13.7273 0H9.18182ZM16.2727 0C15.7204 0 15.2727 0.447715 15.2727 0.999999V1.65H21.8182V1C21.8182 0.447715 21.3705 0 20.8182 0H16.2727ZM1.09094 4.85001C1.09094 4.29773 1.53866 3.85001 2.09094 3.85001H21.9091C22.4614 3.85001 22.9091 4.29773 22.9091 4.85001V19.35C22.9091 19.9023 22.4614 20.35 21.9091 20.35H2.09094C1.53866 20.35 1.09094 19.9023 1.09094 19.35V4.85001ZM6.54543 13.2L8.1818 14.3L9.81816 13.2V12.1C10.6942 10.6867 11.604 7.70697 8.54498 6.70478C8.30842 6.62727 8.05395 6.60953 7.81216 6.66873C6.37315 7.02102 4.54089 8.46179 6.54543 12.1V13.2ZM5.99994 13.75L2.72722 14.85L2.18176 19.8H7.09085L5.99994 13.75ZM13.6363 14.85L10.3636 13.75L9.27267 19.8H14.1818L13.6363 14.85ZM8.1818 14.85L7.63631 15.4V15.95V19.25H8.72722V15.4L8.1818 14.85ZM15.8182 7.75002C15.5421 7.75002 15.3182 7.97388 15.3182 8.25002C15.3182 8.52616 15.5421 8.75002 15.8182 8.75002H21.2728C21.5489 8.75002 21.7728 8.52616 21.7728 8.25002C21.7728 7.97388 21.5489 7.75002 21.2728 7.75002H15.8182ZM15.3182 10.45C15.3182 10.1739 15.5421 9.95002 15.8182 9.95002H20.7273C21.0035 9.95002 21.2273 10.1739 21.2273 10.45C21.2273 10.7262 21.0035 10.95 20.7273 10.95L15.8182 10.95C15.5421 10.95 15.3182 10.7262 15.3182 10.45ZM15.8182 12.15C15.5421 12.15 15.3182 12.3739 15.3182 12.65C15.3182 12.9262 15.5421 13.15 15.8182 13.15H20.7273C21.0035 13.15 21.2273 12.9262 21.2273 12.65C21.2273 12.3739 21.0035 12.15 20.7273 12.15H15.8182ZM15.3182 14.85C15.3182 14.5739 15.5421 14.35 15.8182 14.35H19.091C19.3671 14.35 19.591 14.5739 19.591 14.85C19.591 15.1261 19.3671 15.35 19.091 15.35H15.8182C15.5421 15.35 15.3182 15.1261 15.3182 14.85Z" fill="#DB3839"/>
</svg>
