<svg width="18" height="18" viewBox="0 0 18 18" fill="none" xmlns="http://www.w3.org/2000/svg">
<path fill-rule="evenodd" clip-rule="evenodd" d="M8.27027 0V3.42857H9.24324V0H8.27027ZM2.54589 2.14458L5.31106 4.55727L4.62638 5.16627L1.86121 2.75358L2.54589 2.14458ZM11.6757 8.57141C11.6757 9.99157 10.3688 11.1428 8.75676 11.1428C7.14468 11.1428 5.83784 9.99157 5.83784 8.57141C5.83784 7.15125 7.14468 5.99998 8.75676 5.99998C10.3688 5.99998 11.6757 7.15125 11.6757 8.57141ZM4.37838 14C4.37838 12.8954 5.27381 12 6.37838 12H11.1351C12.2397 12 13.1351 12.8954 13.1351 14V18H4.37838V14ZM3.89189 7.71427H0V8.57141H3.89189V7.71427ZM12.1226 4.58366L14.8812 2.16514L15.5676 2.77269L12.809 5.19121L12.1226 4.58366ZM18 7.71428H14.1081V8.57142H18V7.71428Z" fill="#DB3839"/>
</svg>
