<svg width="18" height="18" viewBox="0 0 18 18" fill="none" xmlns="http://www.w3.org/2000/svg">
<path fill-rule="evenodd" clip-rule="evenodd" d="M7.9588 0.5C7.9588 0.223858 7.73495 0 7.4588 0C7.18266 0 6.9588 0.223858 6.9588 0.5V17.5004C6.9588 17.7766 7.18266 18.0004 7.4588 18.0004C7.73495 18.0004 7.9588 17.7766 7.9588 17.5004V0.5ZM5.24616 3.22876C5.24616 4.40239 4.25552 5.35381 3.03351 5.35381C1.8115 5.35381 0.820869 4.40239 0.820869 3.22876C0.820869 2.05512 1.8115 1.1037 3.03351 1.1037C4.25552 1.1037 5.24616 2.05512 5.24616 3.22876ZM15.6641 3.24618C15.6641 4.41981 14.6735 5.37123 13.4515 5.37123C12.2295 5.37123 11.2388 4.41981 11.2388 3.24618C11.2388 2.07254 12.2295 1.12112 13.4515 1.12112C14.6735 1.12112 15.6641 2.07254 15.6641 3.24618ZM2 5.59991C0.895431 5.59991 0 6.49534 0 7.59991V10.7358C0 11.2269 0.354064 11.6354 0.820869 11.7198V15.6502C0.820869 16.2025 1.26858 16.6502 1.82087 16.6502H4.02154C4.57383 16.6502 5.02154 16.2025 5.02154 15.6502V11.7054C5.45507 11.5959 5.77592 11.2033 5.77592 10.7358V7.59991C5.77592 6.49534 4.88049 5.59991 3.77592 5.59991H2ZM10.455 7.01427C10.7124 6.17381 11.4883 5.59991 12.3673 5.59991H14.4508C15.2992 5.59991 16.0554 6.13529 16.3372 6.93562L17.942 11.493C18.1711 12.1435 17.6884 12.8251 16.9988 12.8251H15.4241V15.6502C15.4241 16.2025 14.9764 16.6502 14.4241 16.6502H12.2235C11.6712 16.6502 11.2235 16.2025 11.2235 15.6502V12.8251H10.0276C9.35531 12.8251 8.87455 12.1751 9.0714 11.5323L10.455 7.01427Z" fill="#DB3839"/>
</svg>
