<svg width="18" height="18" viewBox="0 0 18 18" fill="none" xmlns="http://www.w3.org/2000/svg">
<path fill-rule="evenodd" clip-rule="evenodd" d="M14.2571 9.06271L11.9811 4.63563C10.8927 2.5186 12.4298 0 14.8102 0C17.1906 0 18.7278 2.5186 17.6394 4.63563L15.3633 9.06271C15.1319 9.51279 14.4885 9.51279 14.2571 9.06271ZM15.8528 3.5302C15.8528 4.15235 15.386 4.6567 14.8103 4.6567C14.2345 4.6567 13.7678 4.15235 13.7678 3.5302C13.7678 2.90805 14.2345 2.4037 14.8103 2.4037C15.386 2.4037 15.8528 2.90805 15.8528 3.5302ZM4.88938 4.34951C4.41383 4.38486 3.96091 4.58079 3.54619 4.87721C2.8726 5.35864 2.59714 6.26902 2.59714 7.27983V11.265C2.59714 11.5412 2.37328 11.765 2.09714 11.765C1.821 11.765 1.59714 11.5412 1.59714 11.265V7.27983C1.59714 6.15078 1.8974 4.82648 2.96471 4.06364C3.48569 3.69129 4.11073 3.40464 4.81524 3.35226C5.5277 3.29929 6.27932 3.48935 7.03592 4.00193C8.18749 4.78208 8.534 6.19221 8.534 7.40166V13.2817C8.534 14.1099 8.7258 14.8745 9.20671 15.4114C9.78102 16.0525 10.4556 16.5131 11.1585 16.6068C11.8277 16.696 12.6388 16.467 13.549 15.4789C14.0851 14.8968 14.3101 14.0609 14.3101 13.1715V11.8283C14.3101 11.5521 14.534 11.3283 14.8101 11.3283C15.0862 11.3283 15.3101 11.5521 15.3101 11.8283V13.1715C15.3101 14.2053 15.0513 15.3239 14.2845 16.1564C13.2122 17.3205 12.0959 17.7406 11.0264 17.598C9.99071 17.46 9.11534 16.8081 8.46185 16.0786C7.75203 15.2862 7.534 14.2381 7.534 13.2817V7.40166C7.534 6.32178 7.21882 5.33371 6.47505 4.82983C5.88752 4.4318 5.35697 4.31475 4.88938 4.34951ZM4.16991 15.747C4.16991 16.9913 3.23645 18 2.08496 18C0.933466 18 0 16.9913 0 15.747C0 14.5027 0.933466 13.494 2.08496 13.494C3.23645 13.494 4.16991 14.5027 4.16991 15.747Z" fill="#DB3839"/>
</svg>
